<svg width="36" height="36" viewBox="0 0 40 40" fill="none" xmlns="http://www.w3.org/2000/svg">
<path d="M17.1716 11.1716C17.9508 10.3923 18.9716 10.0018 19.993 10C21.019 9.99822 22.0456 10.3887 22.8284 11.1716C23.6094 11.9526 24 12.9763 24 14C24 15.0237 23.6094 16.0473 22.8284 16.8283C22.0456 17.6113 21.019 18.0017 19.993 17.9999L20 19.9999M38 19.9999C38 29.941 29.9411 37.9999 20 37.9999C10.0589 37.9999 2 29.941 2 19.9999C2 10.0588 10.0589 1.99988 20 1.99988C29.9411 1.99988 38 10.0588 38 19.9999ZM20 28.0001H20.021V28.0208H20V28.0001Z" stroke="#454D59" strokeWidth="3" strokeLinecap="round" strokeLinejoin="round"/>
</svg>