<svg width="36" height="36" viewBox="0 0 48 48" fill="none" xmlns="http://www.w3.org/2000/svg">
<g clip-path="url(#clip0_53_286)">
<path d="M11 19.36C11 15.8167 12.4076 12.4185 14.9131 9.91305C17.4185 7.40757 20.8167 6 24.36 6C26.1145 6 27.8517 6.34557 29.4726 7.01697C31.0936 7.68837 32.5664 8.67246 33.8069 9.91305C35.0475 11.1536 36.0316 12.6264 36.703 14.2473C37.3744 15.8683 37.72 17.6055 37.72 19.36C37.7393 27.9049 34.374 36.1097 28.36 42.18L25.86 44.68C23.7328 46.7942 20.8592 47.9868 17.86 48C16.0724 48 14.3581 47.2899 13.0941 46.0259C11.8301 44.7619 11.12 43.0476 11.12 41.26C11.1182 40.3702 11.2942 39.489 11.6377 38.6682C11.9811 37.8473 12.4851 37.1034 13.12 36.48" stroke="#454D59" strokeWidth="3" strokeMiterlimit="10"/>
<path d="M30.08 19.36C30.08 17.843 29.4774 16.3881 28.4047 15.3154C27.332 14.2427 25.8771 13.64 24.36 13.64C22.843 13.64 21.3881 14.2427 20.3154 15.3154C19.2427 16.3881 18.64 17.843 18.64 19.36V30.82C18.64 31.8331 19.0425 32.8048 19.7589 33.5212C20.4753 34.2376 21.4469 34.64 22.46 34.64C22.9684 34.6507 23.4737 34.5597 23.9464 34.3725C24.4192 34.1853 24.8498 33.9056 25.213 33.5498C25.5763 33.1941 25.8648 32.7693 26.0618 32.3006C26.2587 31.8318 26.3601 31.3285 26.36 30.82C26.3629 30.3108 26.2633 29.8062 26.0674 29.3362C25.8714 28.8662 25.5829 28.4403 25.2191 28.084C24.8553 27.7277 24.4236 27.4481 23.9496 27.2619C23.4756 27.0757 22.9691 26.9866 22.46 27H18.64" stroke="#454D59" strokeWidth="3" strokeMiterlimit="10"/>
</g>
<defs>
<clipPath id="clip0_53_286">
<rect width="48" height="48" fill="white"/>
</clipPath>
</defs>
</svg>
