<?xml version="1.0" encoding="UTF-8" standalone="no"?>
<svg
   xmlns:dc="http://purl.org/dc/elements/1.1/"
   xmlns:cc="http://creativecommons.org/ns#"
   xmlns:rdf="http://www.w3.org/1999/02/22-rdf-syntax-ns#"
   xmlns:svg="http://www.w3.org/2000/svg"
   xmlns="http://www.w3.org/2000/svg"
   viewBox="0 0 1122.52 793.70667"
   height="793.70667"
   width="1122.52"
   xml:space="preserve"
   id="svg2"
   version="1.1"><metadata
     id="metadata8"><rdf:RDF><cc:Work
         rdf:about=""><dc:format>image/svg+xml</dc:format><dc:type
           rdf:resource="http://purl.org/dc/dcmitype/StillImage" /></cc:Work></rdf:RDF></metadata><defs
     id="defs6"><clipPath
       id="clipPath18"
       clipPathUnits="userSpaceOnUse"><path
         id="path16"
         d="M 0,595.28 H 841.89 V 0 H 0 Z" /></clipPath></defs><g
     transform="matrix(1.3333333,0,0,-1.3333333,0,793.70667)"
     id="g10"><g
       id="g12"><g
         clip-path="url(#clipPath18)"
         id="g14"><g
           transform="translate(597.9727,335.8921)"
           id="g20"><path
             id="path22"
             style="fill:#fcc091;fill-opacity:1;fill-rule:evenodd;stroke:none"
             d="m 0,0 c 0,-98.306 -79.693,-178 -178,-178 -98.307,0 -178,79.694 -178,178 0,98.307 79.693,178 178,178 C -79.693,178 0,98.307 0,0" /></g><g
           transform="translate(455.3096,314.5298)"
           id="g24"><path
             id="path26"
             style="fill:#00273f;fill-opacity:1;fill-rule:evenodd;stroke:none"
             d="m 0,0 c -4.739,-0.48 -8.659,4.48 -8.569,8.87 0.08,4.53 3.62,7.95 8.319,7.95 C 4.881,16.84 8.421,13.19 8.46,8.01 8.5,4.13 5.171,-0.35 0,0 m -15.939,-62.73 c -0.01,-0.2 -0.031,-0.399 -0.04,-0.6 -0.271,-9.549 -0.521,-19.089 -0.821,-28.64 -0.2,-6.43 -0.179,-12.89 -0.83,-19.28 -0.559,-5.419 -0.699,-10.839 -0.87,-16.27 -0.17,-5.14 -0.43,-10.29 -0.729,-15.43 -0.1,-1.8 -0.291,-3.61 -0.68,-5.349 -0.551,-2.431 -1.95,-4.281 -4.57,-4.66 -2.75,-0.391 -5.541,-0.551 -8.321,-0.811 -0.01,0.08 -0.01,0.16 -0.019,0.24 -6.83,0 -13.66,0.08 -20.491,-0.03 -3.589,-0.05 -6.089,1.65 -8.04,4.391 -1.029,1.419 -1.89,2.969 -2.759,4.489 -1.991,3.42 -3.951,6.86 -5.901,10.29 -3.23,5.66 -6.49,11.31 -9.65,17 -1.64,2.94 -3.179,5.92 -4.59,8.971 -1.97,4.269 -1.919,8.519 0.601,12.609 2.27,3.67 4.659,7.261 6.81,11.011 3.779,6.649 7.759,13.189 10.509,20.439 2.101,5.59 3.871,11.24 5.5,16.97 0.5,1.77 1.181,2.16 3.011,1.77 5.069,-1.1 10.179,-1.62 15.349,-1.58 5.44,0.04 10.88,0.02 16.311,0.25 2.859,0.12 5.699,0.68 8.54,1.13 1.64,0.26 2.3,-0.13 2.25,-1.82 -0.151,-5.029 -0.37,-10.06 -0.57,-15.09 M -95.68,-3.48 c -3.469,-0.01 -6.57,2.96 -6.58,6.27 -0.01,3.47 2.921,6.47 6.33,6.47 3.511,0 6.42,-3.08 6.41,-6.8 -0.02,-3.11 -2.939,-5.94 -6.16,-5.94 m 30.63,12 c 3.7,-0.17 6.7,-3.34 6.87,-7.24 0.111,-3.06 -2.909,-6.94 -6.759,-6.51 -3.79,0 -6.531,3.07 -6.641,7.11 -0.1,3.4 2.971,6.81 6.53,6.64 m 31.8,0.63 c 3.78,-0.1 7.12,-3.51 7.12,-7.45 -0.09,-3.73 -2.439,-7.41 -7.14,-7.38 -3.87,0.03 -7.24,3.73 -7.31,7.88 -0.049,3.06 2.75,7.08 7.33,6.95 m 95.54,-69.54 c -6.81,5.091 -13.8,9.95 -20.67,14.971 -5.8,4.229 -11.559,8.529 -17.319,12.819 -1.351,1 -1.28,1.59 -0.351,3 2.75,4.11 5.75,8.11 8.021,12.49 3.519,6.76 5.67,14.08 6.41,21.71 0.8,8.34 0.279,16.63 -1.681,24.78 -1.38,5.71 -3.029,11.35 -4.46,17.05 -1.019,4.05 -1.59,8.17 -1.03,12.36 0.49,3.57 2.12,6.33 5.49,8.04 2.55,1.3 5.181,1.7 7.96,1.88 4.58,0.3 9.17,0.46 13.641,1.75 4.559,1.3 8.17,3.72 10.689,7.76 1.16,1.86 1.351,3.85 0.84,5.88 -0.39,1.54 -1.46,2.51 -3.059,2.9 -2.871,0.71 -5.741,1.43 -8.581,2.25 -4.919,1.44 -8.69,4.55 -11.66,8.59 -2.479,3.37 -4.99,6.69 -8.609,8.89 -2.45,1.49 -5.061,2.74 -7.671,3.95 -4.079,1.89 -7.619,4.46 -10.71,7.74 -2.5,2.66 -4.59,5.6 -5.92,8.94 -2.22,5.57 -3.41,11.4 -3.529,17.41 -0.04,2.16 0.05,4.33 -0.101,6.48 -0.179,2.49 -2.139,4.12 -4.63,4.07 -2.21,-0.05 -4.07,-1.74 -4.08,-4.05 -0.03,-4.15 -0.49,-8.32 0.561,-12.43 0.3,-1.2 0.55,-2.42 0.71,-3.64 0.059,-0.5 -0.181,-1.03 -0.29,-1.55 -0.441,0.2 -0.95,0.32 -1.301,0.63 -3.409,2.91 -5.67,6.77 -7.81,10.54 -3.849,6.81 -5.62,14.32 -5.69,22.18 -0.029,2.72 0.07,5.44 0.011,8.16 -0.021,0.98 -0.191,2 -0.521,2.92 -0.76,2.11 -2.149,2.81 -4.91,2.69 -1.859,-0.08 -3.34,-1.2 -3.84,-3.07 -0.33,-1.23 -0.649,-2.49 -0.72,-3.76 -0.37,-6.66 0.22,-13.25 1.63,-19.77 1.21,-5.52 3.92,-10.38 6.63,-15.23 1.26,-2.25 2.941,-4.27 4.33,-6.45 0.951,-1.47 0.521,-2.25 -1.2,-2.09 -2.019,0.18 -4.029,0.56 -6.029,0.9 -2.091,0.35 -3.641,1.48 -4.78,3.28 -2.941,4.67 -5.17,9.66 -6.89,14.87 -0.961,2.92 -1.681,5.92 -2.461,8.89 -0.56,2.17 -2.489,3.68 -4.76,3.64 -1.829,-0.04 -3.32,-1.4 -3.7,-3.63 -0.189,-1.12 -0.209,-2.34 0.01,-3.44 0.421,-2.12 0.93,-4.23 1.671,-6.25 0.949,-2.58 2.219,-5.04 3.239,-7.59 0.25,-0.63 0.05,-1.44 0.05,-2.16 -0.72,0.2 -1.559,0.23 -2.15,0.63 -3.889,2.64 -7.54,5.58 -10.04,9.63 -1.67,2.71 -3.33,5.47 -4.55,8.39 -2.37,5.66 -2.62,11.74 -2.95,17.76 -0.13,2.54 -1.63,4.29 -4.119,4.67 -2.491,0.37 -4.33,-0.81 -5.12,-3.32 -0.21,-0.71 -0.311,-1.49 -0.331,-2.24 -0.04,-2.6 -0.149,-5.21 0.03,-7.79 0.35,-4.98 1.321,-9.86 3.531,-14.35 2.049,-4.11 4.319,-8.07 7.379,-11.6 2.56,-2.99 5.27,-5.81 8.44,-8.11 2.5,-1.83 5.301,-3.26 8.011,-4.8 6.7,-3.81 13.99,-5.94 21.58,-6.87 4.5,-0.55 9.09,-0.42 13.63,-0.66 1.019,-0.05 2.25,-0.03 3,-0.57 3.349,-2.38 6.58,-4.92 9.79,-7.48 0.759,-0.6 0.62,-1.43 -0.121,-2.06 -0.669,-0.57 -1.37,-1.11 -2.04,-1.68 -2.299,-1.92 -4.61,-3.82 -5.929,-6.64 -0.851,-1.84 -1.29,-1.93 -3.34,-1.6 -3.561,0.57 -7.131,0.28 -10.37,-1.14 -4.351,-1.91 -8.46,-4.32 -11.571,-8.11 -2.37,-2.88 -2.309,-3.41 0.56,-6.09 0.12,-0.11 0.25,-0.2 0.391,-0.28 3.309,-2.04 6.88,-3.56 10.74,-3.86 3.199,-0.25 6.449,0.07 9.68,0.22 1.349,0.06 1.92,-0.12 2.08,-1.18 0.21,-1.43 0.45,-2.86 0.469,-4.29 0.071,-4.56 0.13,-9.12 0,-13.68 C 1.83,59.35 1.631,56.82 1.021,54.45 -0.489,48.57 -2.76,43.1 -7.119,38.54 -11,34.5 -15.56,31.76 -20.67,29.78 c -6.14,-2.36 -12.569,-3.3 -19.12,-3.6 -2.98,-0.13 -5.96,-0.66 -8.95,-0.63 -5.369,0.04 -10.76,-0.09 -16.159,0.33 -6.261,0.48 -12.591,0.43 -18.911,-0.23 -4.24,-0.44 -8.48,-0.8 -12.7,-1.47 -7.21,-1.14 -13.679,-4.12 -20.01,-7.47 -3.64,-1.93 -7.069,-4.2 -10.569,-6.36 -6.98,-4.32 -14.35,-7.73 -22.12,-10.34 -1.23,-0.42 -1.71,-1.41 -1.031,-2.67 0.651,-1.17 1.421,-2.38 2.43,-3.22 3.891,-3.24 8.63,-4 13.48,-4.18 2.641,-0.09 2.82,-0.22 2.83,-2.9 0.021,-3.03 -0.069,-6.08 0.181,-9.1 0.429,-5.21 1.429,-10.37 1.38,-15.609 -0.051,-3.801 0.089,-7.621 -0.361,-11.38 -0.369,-3.221 -1.309,-6.41 -2.28,-9.531 -0.83,-2.74 -1.899,-5.45 -3.14,-8.04 -3.179,-6.64 -8.179,-11.9 -13.5,-16.83 -2.44,-2.27 -5.19,-4.219 -7.82,-6.31 -1.069,-0.86 -1.96,-1.85 -2.359,-3.23 -0.96,-3.34 -2.101,-6.639 -3,-9.99 -2.681,-9.979 -6.161,-19.68 -9.701,-29.37 -2.16,-5.89 -4.31,-11.79 -6.279,-17.739 -0.98,-3 -1.58,-6.151 -0.881,-9.341 0.58,-2.71 1.83,-3.279 4.35,-2.13 3.52,1.62 5.971,4.42 7.87,7.65 1.29,2.201 2.21,4.611 3.28,6.94 2.651,5.78 5.25,11.58 7.93,17.341 3.681,7.939 7.33,15.899 11.23,23.739 1.52,3.07 3.77,5.69 6.85,7.54 2.101,1.27 4.081,2.801 6.03,4.31 3.33,2.54 6.67,5.081 9.89,7.77 3.61,3.02 7.181,6.101 10.58,9.351 2.45,2.339 4.601,4.989 6.9,7.5 1.281,1.419 2.54,2.859 3.871,4.239 0.299,0.301 0.91,0.58 1.229,0.46 0.331,-0.119 0.61,-0.73 0.661,-1.14 0.44,-5.45 0.13,-10.86 -1.14,-16.2 -1.13,-4.73 -3.661,-8.87 -5.98,-13.05 -2.61,-4.689 -2.261,-8.979 0.609,-13.29 1.33,-1.99 2.681,-3.979 3.991,-5.99 2.44,-3.75 4.839,-7.52 7.279,-11.26 3.601,-5.53 7.241,-11.03 10.83,-16.55 2,-3.04 3.98,-6.09 5.9,-9.179 0.431,-0.701 0.56,-1.58 0.85,-2.391 -0.839,-0.24 -1.669,-0.52 -2.54,-0.7 -0.419,-0.1 -0.87,-0.02 -1.299,-0.02 h -43.321 c -0.84,0 -1.69,0.02 -2.52,-0.09 -1.659,-0.21 -2.63,-1.19 -2.65,-2.87 -0.06,-3.56 -0.06,-7.12 0,-10.679 0.02,-1.621 0.951,-2.601 2.57,-2.821 0.941,-0.12 1.921,-0.099 2.87,-0.099 H 43.41 c 0.96,0 1.931,-0.021 2.88,0.09 1.66,0.199 2.61,1.199 2.641,2.879 0.049,3.56 0.049,7.121 -0.01,10.68 -0.021,1.61 -0.961,2.59 -2.57,2.811 -0.83,0.109 -1.68,0.099 -2.521,0.099 -14.239,0 -28.479,-0.01 -42.71,0.01 -3.689,0 -7.26,2.641 -8.04,6.181 -0.34,1.559 -0.25,3.269 -0.069,4.88 0.309,2.889 0.859,5.759 1.26,8.639 0.379,2.77 0.65,5.56 1.049,8.321 0.87,5.969 1.76,11.939 2.68,17.899 0.83,5.36 1.73,10.721 2.591,16.07 0.26,1.66 0.46,3.321 0.75,4.97 0.619,3.63 1.269,7.25 1.939,10.86 1.111,6.01 2.241,12.01 3.37,18.02 0.271,1.45 0.521,2.91 0.861,4.35 0.3,1.26 0.939,1.59 2.12,1.161 1.239,-0.451 2.489,-0.891 3.68,-1.451 3.669,-1.69 7.29,-3.469 10.96,-5.15 6.759,-3.09 13.559,-6.12 20.33,-9.189 6.08,-2.771 9.259,-7.301 8.469,-14.17 -0.229,-1.991 -0.469,-3.971 -0.83,-5.931 -1.2,-6.6 -2.439,-13.189 -3.7,-19.779 -0.22,-1.131 -0.64,-2.231 -0.85,-3.361 -0.9,-4.99 -1.78,-9.98 -2.61,-14.98 -0.609,-3.68 -0.14,-7.27 1.341,-10.68 1.279,-2.94 3.869,-3.45 5.989,-1.09 1.29,1.44 2.46,3.1 3.191,4.87 1.049,2.53 1.799,5.22 2.42,7.9 1.429,6.14 2.689,12.33 4.04,18.49 1.46,6.63 3.009,13.24 4.399,19.89 0.971,4.65 1.801,9.33 2.561,14.02 0.209,1.27 0.08,2.64 -0.151,3.92 -0.769,4.111 -3.399,7.06 -6.58,9.43" /></g><g
           transform="translate(463.7695,322.54)"
           id="g28"><path
             id="path30"
             style="fill:#ffffff;fill-opacity:1;fill-rule:evenodd;stroke:none"
             d="m 0,0 c 0.04,-3.88 -3.289,-8.36 -8.46,-8.01 -4.739,-0.48 -8.659,4.48 -8.569,8.87 0.08,4.53 3.62,7.95 8.319,7.95 C -3.579,8.83 -0.039,5.18 0,0" /></g><g
           transform="translate(429.1797,316.23)"
           id="g32"><path
             id="path34"
             style="fill:#ffffff;fill-opacity:1;fill-rule:evenodd;stroke:none"
             d="m 0,0 c -0.09,-3.73 -2.439,-7.41 -7.14,-7.38 -3.87,0.03 -7.24,3.73 -7.31,7.88 -0.05,3.06 2.75,7.08 7.33,6.95 C -3.34,7.35 0,3.94 0,0" /></g><g
           transform="translate(397.1299,315.8101)"
           id="g36"><path
             id="path38"
             style="fill:#ffffff;fill-opacity:1;fill-rule:evenodd;stroke:none"
             d="m 0,0 c 0.11,-3.06 -2.91,-6.94 -6.76,-6.51 -3.79,0 -6.53,3.07 -6.64,7.11 -0.1,3.4 2.97,6.81 6.53,6.64 C -3.17,7.07 -0.17,3.9 0,0" /></g><g
           transform="translate(365.79,316.9902)"
           id="g40"><path
             id="path42"
             style="fill:#ffffff;fill-opacity:1;fill-rule:evenodd;stroke:none"
             d="m 0,0 c -0.02,-3.11 -2.94,-5.94 -6.16,-5.94 -3.47,-0.01 -6.57,2.96 -6.58,6.27 C -12.75,3.8 -9.82,6.8 -6.41,6.8 -2.9,6.8 0.01,3.72 0,0" /></g><g
           transform="translate(403.3501,122.7178)"
           id="g44"><path
             id="path46"
             style="fill:#00273f;fill-opacity:1;fill-rule:evenodd;stroke:none"
             d="m 0,0 c -0.305,-0.658 -0.684,-1.295 -0.898,-1.982 -1.942,-6.18 -3.858,-12.37 -5.772,-18.557 -1.726,-5.578 -3.435,-11.16 -5.162,-16.738 -0.576,-1.864 -0.992,-2.176 -2.898,-2.196 -1.401,-0.015 -2.801,-0.017 -4.2,0 -1.841,0.024 -2.277,0.34 -2.822,2.133 -2.117,6.963 -4.217,13.932 -6.326,20.899 -1.426,4.707 -2.846,9.416 -4.299,14.115 -0.234,0.752 -0.635,1.453 -0.959,2.176 -0.168,-0.024 -0.338,-0.047 -0.508,-0.071 -0.092,-0.508 -0.256,-1.011 -0.261,-1.519 -0.04,-3.28 -0.055,-6.559 -0.057,-9.838 -0.006,-8.117 0,-16.236 -0.004,-24.354 0,-3.367 -0.18,-3.547 -3.484,-3.548 -1.6,0 -3.2,-0.012 -4.799,0.011 -1.766,0.024 -2.215,0.457 -2.225,2.207 -0.019,3.998 -0.01,7.998 -0.01,11.996 -0.002,12.118 -0.002,24.235 0,36.352 0.002,2.492 0.327,2.848 2.83,2.863 4.639,0.026 9.278,0.028 13.917,-0.002 2.513,-0.017 2.781,-0.275 3.496,-2.711 2.451,-8.365 4.896,-16.732 7.388,-25.086 0.213,-0.709 0.76,-1.318 1.151,-1.972 0.42,0.672 1.006,1.291 1.236,2.021 2.623,8.356 5.187,16.729 7.779,25.094 0.746,2.408 0.977,2.625 3.432,2.646 4.758,0.041 9.517,0.038 14.275,0.002 2.3,-0.015 2.65,-0.408 2.65,-2.673 0.004,-16.036 0.004,-32.073 0,-48.11 0,-2.297 -0.336,-2.625 -2.65,-2.633 -2.599,-0.009 -5.199,-0.017 -7.797,0.008 -1.644,0.018 -2.064,0.426 -2.183,2.033 -0.047,0.639 -0.043,1.28 -0.045,1.92 C 0.787,-24.557 0.787,-13.6 0.768,-2.643 0.766,-1.795 0.635,-0.947 0.564,-0.1 0.377,-0.066 0.187,-0.033 0,0" /></g><g
           transform="translate(480.2881,104.126)"
           id="g48"><path
             id="path50"
             style="fill:#00273f;fill-opacity:1;fill-rule:evenodd;stroke:none"
             d="m 0,0 v 0.01 c 1.236,0 2.477,-0.043 3.711,0.013 C 4.937,0.078 5.361,0.635 5.09,1.842 4.854,2.891 4.512,3.918 4.203,4.949 3.197,8.316 2.209,11.689 1.146,15.037 0.977,15.572 0.459,15.996 0.102,16.471 -0.234,16.01 -0.672,15.592 -0.883,15.082 -1.248,14.199 -1.475,13.26 -1.754,12.344 -2.785,8.943 -3.844,5.551 -4.834,2.139 -5.277,0.611 -4.816,0.049 -3.234,0.006 -2.158,-0.025 -1.078,0 0,0 m 1.529,32.523 c 1.68,0 3.362,0.047 5.039,-0.013 1.905,-0.069 2.245,-0.346 2.819,-2.162 1.974,-6.256 3.935,-12.514 5.894,-18.774 3.047,-9.734 6.088,-19.469 9.131,-29.203 0.072,-0.228 0.147,-0.457 0.217,-0.685 0.631,-2.069 0.293,-2.555 -1.844,-2.567 -2.92,-0.015 -5.84,-0.015 -8.76,0.004 -1.67,0.012 -2.195,0.408 -2.687,2.002 -0.709,2.293 -1.369,4.6 -2.08,6.893 -0.531,1.712 -0.992,2.074 -2.744,2.082 -4.28,0.019 -8.559,0.019 -12.838,0.002 -1.801,-0.008 -2.291,-0.389 -2.844,-2.139 -0.734,-2.326 -1.418,-4.668 -2.162,-6.992 -0.481,-1.502 -0.941,-1.83 -2.535,-1.846 -2.199,-0.021 -4.401,-0.025 -6.6,0 -1.818,0.02 -2.222,0.586 -1.668,2.326 3.127,9.791 6.262,19.58 9.397,29.371 2.048,6.399 4.097,12.799 6.158,19.194 0.721,2.24 1.058,2.486 3.428,2.527 1.56,0.025 3.119,0.004 4.679,0.004 z" /></g><g
           transform="translate(461.2021,127.9971)"
           id="g52"><path
             id="path54"
             style="fill:#00273f;fill-opacity:1;fill-rule:evenodd;stroke:none"
             d="m 0,0 c -0.031,-1.459 -0.49,-1.949 -1.961,-1.969 -2.961,-0.051 -5.92,-0.021 -8.881,-0.041 -1.898,-0.01 -2.33,-0.429 -2.33,-2.349 -0.019,-6.36 -0.01,-12.721 -0.01,-19.08 V -42.16 c -0.009,-2.24 -0.349,-2.58 -2.568,-2.59 -2.561,-0.02 -5.121,-0.02 -7.682,0 -2,0.01 -2.459,0.461 -2.459,2.5 -0.009,12.311 -0.009,24.631 -0.009,36.951 0,3.229 -0.061,3.299 -3.291,3.299 -2.559,0 -5.12,-0.01 -7.68,0.01 -1.731,0.021 -2.231,0.511 -2.26,2.22 -0.019,2.11 -0.019,4.231 0.01,6.35 0.019,1.49 0.449,1.92 1.92,2.051 0.519,0.039 1.041,0.049 1.56,0.049 H -3.49 C -0.16,8.68 0.02,8.49 0.02,5.16 0.02,3.441 0.039,1.721 0,0" /></g><g
           transform="translate(347.9438,109.833)"
           id="g56"><path
             id="path58"
             style="fill:#00273f;fill-opacity:1;fill-rule:evenodd;stroke:none"
             d="m 0,0 c 0,-7.959 0.002,-15.918 -0.002,-23.877 -0.002,-2.4 -0.309,-2.705 -2.691,-2.715 -2.44,-0.01 -4.881,-0.013 -7.321,0.004 -1.968,0.014 -2.455,0.467 -2.455,2.385 -0.008,16.238 -0.008,32.476 0.004,48.713 0,1.791 0.383,2.228 2.17,2.275 2.678,0.072 5.359,0.076 8.037,0.018 1.893,-0.041 2.25,-0.479 2.252,-2.446 C 0.004,16.238 -0.002,8.119 0,0" /></g><g
           transform="translate(341.7778,421.5767)"
           id="g60"><path
             id="path62"
             style="fill:#ffffff;fill-opacity:1;fill-rule:evenodd;stroke:none"
             d="m 0,0 c 0,-11.674 -9.464,-21.139 -21.139,-21.139 -11.674,0 -21.139,9.465 -21.139,21.139 0,11.675 9.465,21.139 21.139,21.139 C -9.464,21.139 0,11.675 0,0" /></g><g
           transform="translate(354.6665,455.0005)"
           id="g64"><path
             id="path66"
             style="fill:#ffffff;fill-opacity:1;fill-rule:evenodd;stroke:none"
             d="m 0,0 c 0,-2.301 -1.866,-4.167 -4.167,-4.167 -2.301,0 -4.166,1.866 -4.166,4.167 0,2.301 1.865,4.167 4.166,4.167 C -1.866,4.167 0,2.301 0,0" /></g><g
           transform="translate(365.123,414.1255)"
           id="g68"><path
             id="path70"
             style="fill:#ffffff;fill-opacity:1;fill-rule:evenodd;stroke:none"
             d="m 0,0 c 0,-1.231 -0.998,-2.229 -2.229,-2.229 -1.23,0 -2.228,0.998 -2.228,2.229 0,1.23 0.998,2.228 2.228,2.228 C -0.998,2.228 0,1.23 0,0" /></g><g
           transform="translate(321.667,374.5005)"
           id="g72"><path
             id="path74"
             style="fill:#ffffff;fill-opacity:1;fill-rule:evenodd;stroke:none"
             d="m 0,0 c 0,-1.197 -0.97,-2.167 -2.167,-2.167 -1.196,0 -2.166,0.97 -2.166,2.167 0,1.196 0.97,2.167 2.166,2.167 C -0.97,2.167 0,1.196 0,0" /></g><g
           transform="translate(281.4126,396.501)"
           id="g76"><path
             id="path78"
             style="fill:#ffffff;fill-opacity:1;fill-rule:evenodd;stroke:none"
             d="m 0,0 c 0,-1.565 -1.269,-2.833 -2.833,-2.833 -1.565,0 -2.834,1.268 -2.834,2.833 0,1.564 1.269,2.833 2.834,2.833 C -1.269,2.833 0,1.564 0,0" /></g><g
           transform="translate(287.54,362.3335)"
           id="g80"><path
             id="path82"
             style="fill:#ffffff;fill-opacity:1;fill-rule:evenodd;stroke:none"
             d="m 0,0 c 0,-1.289 -1.044,-2.333 -2.333,-2.333 -1.289,0 -2.334,1.044 -2.334,2.333 0,1.289 1.045,2.333 2.334,2.333 C -1.044,2.333 0,1.289 0,0" /></g><g
           transform="translate(301.9165,385.4287)"
           id="g84"><path
             id="path86"
             style="fill:#ffffff;fill-opacity:1;fill-rule:evenodd;stroke:none"
             d="m 0,0 c 0,-1.334 -1.082,-2.417 -2.417,-2.417 -1.334,0 -2.416,1.083 -2.416,2.417 0,1.335 1.082,2.417 2.416,2.417 C -1.082,2.417 0,1.335 0,0" /></g><g
           transform="translate(413.3335,233)"
           id="g88"><path
             id="path90"
             style="fill:#ffffff;fill-opacity:1;fill-rule:evenodd;stroke:none"
             d="m 0,0 c 0,-2.025 -1.642,-3.667 -3.667,-3.667 -2.025,0 -3.667,1.642 -3.667,3.667 0,2.025 1.642,3.667 3.667,3.667 C -1.642,3.667 0,2.025 0,0" /></g><g
           transform="translate(413.3335,195.666)"
           id="g92"><path
             id="path94"
             style="fill:#ffffff;fill-opacity:1;fill-rule:evenodd;stroke:none"
             d="m 0,0 c 0,-1.104 -0.747,-2 -1.667,-2 -0.92,0 -1.667,0.896 -1.667,2 0,1.104 0.747,2 1.667,2 C -0.747,2 0,1.104 0,0" /></g><g
           transform="translate(482,217.665)"
           id="g96"><path
             id="path98"
             style="fill:#ffffff;fill-opacity:1;fill-rule:evenodd;stroke:none"
             d="m 0,0 c 0,-2.209 -1.791,-4 -4,-4 -2.209,0 -4,1.791 -4,4 0,2.209 1.791,4 4,4 2.209,0 4,-1.791 4,-4" /></g><g
           transform="translate(541.667,340.6621)"
           id="g100"><path
             id="path102"
             style="fill:#ffffff;fill-opacity:1;fill-rule:evenodd;stroke:none"
             d="m 0,0 c 0,-5.339 -4.328,-9.667 -9.667,-9.667 -5.339,0 -9.667,4.328 -9.667,9.667 0,5.339 4.328,9.667 9.667,9.667 C -4.328,9.667 0,5.339 0,0" /></g><g
           transform="translate(541.667,313.4331)"
           id="g104"><path
             id="path106"
             style="fill:#ffffff;fill-opacity:1;fill-rule:evenodd;stroke:none"
             d="m 0,0 c 0,-1.565 -1.269,-2.833 -2.833,-2.833 -1.565,0 -2.834,1.268 -2.834,2.833 0,1.565 1.269,2.833 2.834,2.833 C -1.269,2.833 0,1.565 0,0" /></g><g
           transform="translate(569.5371,326.2412)"
           id="g108"><path
             id="path110"
             style="fill:#ffffff;fill-opacity:1;fill-rule:evenodd;stroke:none"
             d="m 0,0 c 0,-1.759 -1.426,-3.185 -3.186,-3.185 -1.758,0 -3.184,1.426 -3.184,3.185 0,1.759 1.426,3.185 3.184,3.185 C -1.426,3.185 0,1.759 0,0" /></g><g
           transform="translate(562.333,292.1621)"
           id="g112"><path
             id="path114"
             style="fill:#ffffff;fill-opacity:1;fill-rule:evenodd;stroke:none"
             d="m 0,0 c 0,-1.196 -0.97,-2.166 -2.167,-2.166 -1.196,0 -2.166,0.97 -2.166,2.166 0,1.197 0.97,2.167 2.166,2.167 C -0.97,2.167 0,1.197 0,0" /></g><g
           transform="translate(562.333,365.8291)"
           id="g116"><path
             id="path118"
             style="fill:#ffffff;fill-opacity:1;fill-rule:evenodd;stroke:none"
             d="M 0,0 C 0,-1.933 -1.567,-3.5 -3.5,-3.5 -5.433,-3.5 -7,-1.933 -7,0 -7,1.933 -5.433,3.5 -3.5,3.5 -1.567,3.5 0,1.933 0,0" /></g><g
           transform="translate(508.333,452.834)"
           id="g120"><path
             id="path122"
             style="fill:#ffffff;fill-opacity:1;fill-rule:evenodd;stroke:none"
             d="m 0,0 c 0,-1.197 -0.97,-2.167 -2.167,-2.167 -1.196,0 -2.166,0.97 -2.166,2.167 0,1.196 0.97,2.166 2.166,2.166 C -0.97,2.166 0,1.196 0,0" /></g><g
           transform="translate(552.667,246.666)"
           id="g124"><path
             id="path126"
             style="fill:#ffffff;fill-opacity:1;fill-rule:evenodd;stroke:none"
             d="m 0,0 c 0,-1.288 -1.045,-2.333 -2.333,-2.333 -1.289,0 -2.334,1.045 -2.334,2.333 0,1.289 1.045,2.334 2.334,2.334 C -1.045,2.334 0,1.289 0,0" /></g></g></g></g></svg>