<svg width="43" height="40" viewBox="0 0 43 40" fill="none" xmlns="http://www.w3.org/2000/svg">
<path d="M7.16669 31.6667V10.3333C7.16669 8.4665 7.16669 7.53307 7.55725 6.82003C7.90079 6.19282 8.44896 5.68288 9.12322 5.36332C9.88973 5 10.8932 5 12.9 5H30.1C32.1069 5 33.1104 5 33.8769 5.36332C34.5511 5.68288 35.0993 6.19282 35.4428 6.82003C35.8334 7.53307 35.8334 8.4665 35.8334 10.3333V28.3333H10.75C8.771 28.3333 7.16669 29.8257 7.16669 31.6667ZM7.16669 31.6667C7.16669 33.5077 8.771 35 10.75 35H35.8334M16.125 11.6667H26.875M16.125 18.3333H26.875M34.0417 28.3333V35" stroke="#454D59" strokeWidth="3" strokeLinecap="round" strokeLinejoin="round"/>
</svg>
