<svg width="36" height="36" viewBox="0 0 43 43" fill="none" xmlns="http://www.w3.org/2000/svg">
<path d="M19.7084 7.16661H12.9C10.8932 7.16661 9.88973 7.16661 9.12322 7.55718C8.44897 7.90073 7.90079 8.44891 7.55725 9.12315C7.16669 9.88968 7.16669 10.8931 7.16669 12.8999V30.0999C7.16669 32.1068 7.16669 33.1103 7.55725 33.8768C7.90079 34.551 8.44897 35.0992 9.12322 35.4427C9.88973 35.8333 10.8932 35.8333 12.9 35.8333H30.1C32.1069 35.8333 33.1104 35.8333 33.8769 35.4427C34.5511 35.0992 35.0993 34.551 35.4428 33.8768C35.8334 33.1103 35.8334 32.1068 35.8334 30.0999V22.3958M27.7709 9.85411L32.8384 14.9217M19.2832 18.3418L31.1947 6.43027C32.594 5.03089 34.863 5.03089 36.2623 6.43027C37.6618 7.82965 37.6618 10.0985 36.2623 11.4979L23.9679 23.7922C22.6033 25.1569 21.9211 25.8392 21.1438 26.3817C20.454 26.8635 19.71 27.2623 18.9272 27.5705C18.0452 27.9177 17.0993 28.1085 15.2076 28.4903L14.3334 28.6666L14.4184 28.0714C14.7192 25.9657 14.8696 24.9127 15.2118 23.9296C15.5154 23.0573 15.9302 22.2279 16.4458 21.4616C17.027 20.598 17.7791 19.8459 19.2832 18.3418Z" stroke="#454D59" strokeWidth="3" strokeLinecap="round" strokeLinejoin="round"/>
</svg>
